HIERARCHY
ROOT Hips
{
	OFFSET -0.179506 -22.333345 2.821913
	CHANNELS 6 Xposition Yposition Zposition Zrotation Yrotation Xrotation 
	JOINT LeftUpLeg
	{
		OFFSET 6.951974 -9.140623 -0.681533
		CHANNELS 3 Zrotation Yrotation Xrotation
		JOINT LeftLeg
		{
			OFFSET 3.427654 -37.519855 -0.449580
			CHANNELS 3 Zrotation Yrotation Xrotation
			JOINT LeftFoot
			{
				OFFSET -1.359570 -39.796059 -4.369333
				CHANNELS 3 Zrotation Yrotation Xrotation
				JOINT LeftToe
				{
					OFFSET 2.635814 -5.579078 11.928840
					CHANNELS 3 Zrotation Yrotation Xrotation
					End Site
					{
						OFFSET 0.000000 0.000000 0.000000
					}
				}
			}
		}
	}
	JOINT RightUpLeg
	{
		OFFSET -6.767048 -9.052170 -0.431982
		CHANNELS 3 Zrotation Yrotation Xrotation
		JOINT RightLeg
		{
			OFFSET -3.829005 -38.256897 -0.885003
			CHANNELS 3 Zrotation Yrotation Xrotation
			JOINT RightFoot
			{
				OFFSET 1.577377 -39.841461 -4.231180
				CHANNELS 3 Zrotation Yrotation Xrotation
				JOINT RightToe
				{
					OFFSET -2.537174 -4.814398 12.334795
					CHANNELS 3 Zrotation Yrotation Xrotation
					End Site
					{
						OFFSET 0.000000 0.000000 0.000000
					}
				}
			}
		}
	}
	JOINT Spine
	{
		OFFSET -0.253288 10.896323 -2.669631
		CHANNELS 3 Zrotation Yrotation Xrotation
		JOINT Spine1
		{
			OFFSET 0.548704 13.518043 0.109247
			CHANNELS 3 Zrotation Yrotation Xrotation
			JOINT Spine2
			{
				OFFSET 0.145701 5.292222 2.542457
				CHANNELS 3 Zrotation Yrotation Xrotation
				JOINT Neck
				{
					OFFSET -0.277840 21.387037 -4.285703
					CHANNELS 3 Zrotation Yrotation Xrotation
					JOINT Head
					{
						OFFSET 0.515184 6.496960 5.134897
						CHANNELS 3 Zrotation Yrotation Xrotation
						End Site
						{
							OFFSET 0.000000 0.000000 0.000000
						}
					}
				}
				JOINT LeftShoulder
				{
					OFFSET 7.884473 12.174932 -3.408961
					CHANNELS 3 Zrotation Yrotation Xrotation
					JOINT LeftArm
					{
						OFFSET 9.097692 3.046888 -0.886815
						CHANNELS 3 Zrotation Yrotation Xrotation
						JOINT LeftForeArm
						{
							OFFSET 25.961220 -1.277207 -2.745643
							CHANNELS 3 Zrotation Yrotation Xrotation
							JOINT LeftHand
							{
								OFFSET 24.923361 0.898606 -0.117091
								CHANNELS 3 Zrotation Yrotation Xrotation
								End Site
								{
									OFFSET 0.000000 0.000000 0.000000
								}
							}
						}
					}
				}
				JOINT RightShoulder
				{
					OFFSET -8.175920 11.883285 -3.861528
					CHANNELS 3 Zrotation Yrotation Xrotation
					JOINT RightArm
					{
						OFFSET -9.601238 3.255117 -0.914307
						CHANNELS 3 Zrotation Yrotation Xrotation
						JOINT RightForeArm
						{
							OFFSET -25.374195 -1.332924 -2.140099
							CHANNELS 3 Zrotation Yrotation Xrotation
							JOINT RightHand
							{
								OFFSET -25.529810 0.777228 -0.555919
								CHANNELS 3 Zrotation Yrotation Xrotation
								End Site
								{
									OFFSET 0.000000 0.000000 0.000000
								}
							}
						}
					}
				}
			}
		}
	}
}
MOTION
Frames: 9
Frame Time: 0.033333
-36.750454 39.709385 9.975371 -179.478290 -3.796808 177.989744 2.853582 -6.299242 4.804227 -1.099612 -21.115670 9.053632 2.484003 15.819645 -30.040032 nan nan nan -1.609327 -1.824114 5.862560 4.236613 2.752411 6.134375 8.743720 -6.831786 -21.132056 nan nan nan -1.012717 1.836082 -11.423753 3.487396 -3.723640 -0.181222 1.602615 -0.288792 -4.515829 -0.580718 -2.590765 -19.372638 9.258377 -1.149895 -33.563458 -8.999209 -0.374386 3.873632 -25.252920 5.394223 8.027832 -178.313610 -64.004162 -150.058045 52.193845 -33.593913 -14.965320 3.446311 1.432651 2.269717 32.383308 -11.336597 -3.934845 166.939723 55.549302 -160.775998 -54.736001 30.850267 -19.807795 
-36.755455 39.740147 9.999737 -179.492740 -3.794416 178.108416 2.831467 -6.389178 4.657634 -1.066201 -20.957313 9.070438 2.521394 15.758208 -30.228832 nan nan nan -1.619735 -1.834483 5.646392 4.236710 2.688566 6.269197 8.734855 -6.815690 -21.098193 nan nan nan -0.948453 1.864568 -11.096779 3.474212 -3.623203 -0.914830 1.606901 -0.264220 -4.499409 -0.753524 -2.831949 -19.019580 9.400613 -1.182751 -33.664660 -9.219110 -0.367376 3.740830 -25.051541 5.406121 8.396462 -177.664225 -64.160325 -151.041408 52.635756 -33.606791 -15.982462 3.545051 1.262458 2.132792 32.048574 -11.635918 -3.938310 166.441345 55.322614 -161.378516 -54.983646 30.949975 -19.885887 
-36.778553 39.752827 10.050666 -179.491765 -3.899346 178.537092 2.729815 -7.254135 4.322435 -0.687457 -20.197842 8.298567 2.653676 12.575358 -18.752925 nan nan nan -1.629949 -1.669220 5.122873 4.266183 1.865645 6.339032 8.100203 -6.479187 -21.013797 nan nan nan -0.636035 1.952915 -11.450449 3.015760 -3.652201 -1.156797 1.686947 -0.212997 -4.961917 -1.424882 -3.299469 -17.560479 10.086274 -1.003907 -34.047225 -9.038729 -1.303937 4.344649 -25.381621 6.378200 8.472845 -178.207821 -64.161707 -150.561834 53.706916 -33.382879 -16.099085 2.985887 1.492092 2.911154 33.047314 -11.983928 -4.265127 166.739830 55.333207 -161.106624 -54.998392 31.666867 -17.896849 
-36.814621 39.749409 10.141073 -179.545143 -4.238091 178.797029 2.808858 -6.583608 3.778969 -0.764933 -20.563210 8.588136 2.672451 12.010617 -18.543776 nan nan nan -1.720717 -1.791127 4.796762 4.348233 1.701670 6.448294 8.007293 -6.401641 -21.205049 nan nan nan -0.623815 1.664190 -11.517346 2.932057 -3.680489 -1.446827 1.672584 -0.234039 -4.991358 -1.447299 -3.288434 -17.360063 10.126141 -0.904620 -34.038676 -9.233322 -1.332323 4.427191 -25.086998 6.596424 8.412760 -178.354549 -63.961269 -150.350082 53.380678 -33.380920 -15.503518 2.998506 1.498194 3.032297 33.063649 -11.982087 -4.353439 166.503152 55.311446 -161.227700 -54.955327 31.668498 -17.702172 
-36.754147 39.770321 10.081886 -179.512616 -3.970633 178.601328 2.782942 -7.230991 4.185377 -0.824036 -20.126523 8.514486 2.809137 12.467364 -18.456145 nan nan nan -1.571422 -1.582941 5.082245 4.237572 1.827444 6.326729 7.976811 -6.432854 -21.093461 nan nan nan -0.617917 1.885602 -11.480128 2.928337 -3.662266 -1.159928 1.612352 -0.241704 -5.037832 -1.281641 -3.324893 -17.351273 10.128348 -1.070960 -34.073259 -9.067093 -1.114547 4.287826 -25.161676 6.440579 8.406543 -178.479773 -63.918423 -150.226879 53.065557 -33.455799 -15.358321 2.953855 1.427460 2.961704 33.329608 -11.886040 -4.093716 166.441396 55.348596 -161.303404 -54.527115 31.629610 -17.782695 
-36.752533 39.776066 10.149940 -179.294961 -4.445812 178.202424 3.103662 -8.213310 4.509638 -1.311724 -20.140731 8.517602 3.394502 12.849142 -17.795613 nan nan nan -1.346678 -1.604249 5.651287 4.328918 1.229874 6.041186 8.227407 -6.352827 -21.070007 nan nan nan -1.238687 2.928426 -11.491972 3.297121 -2.760765 0.686416 2.308860 -0.346620 -4.680078 -1.035582 -4.826464 -20.888448 8.771534 -2.789300 -33.681331 -6.314334 -3.923522 5.576202 -30.927476 5.548302 6.588046 -179.506355 -64.639020 -148.934130 55.404411 -34.279382 -15.212161 0.747638 0.015778 1.527719 35.709189 -14.086602 -6.450409 165.568338 53.947044 -161.886782 -55.863257 32.618828 -15.571659 
-36.723774 39.668350 10.132583 -179.222085 -4.526258 178.217770 3.316439 -8.362437 4.499823 -1.542218 -20.081130 8.504434 3.843511 12.890798 -17.639486 nan nan nan -1.219823 -1.662345 5.684959 4.288154 1.203610 6.017076 8.313803 -6.366650 -21.171907 nan nan nan -1.254334 2.938418 -11.394689 3.393497 -2.727729 1.312985 2.302331 -0.268327 -4.644065 -0.671125 -5.084080 -23.383903 8.239816 -2.858381 -32.230004 -5.544634 -3.176041 5.447470 -31.357710 4.508900 5.810137 -177.948228 -64.091958 -150.699998 54.773425 -33.827009 -14.123895 0.059044 -1.207933 1.633276 36.046239 -12.759262 -7.692614 164.875764 53.341134 -162.692811 -54.444621 32.726806 -12.185736 
-36.708912 39.637524 10.127396 -179.177210 -4.536479 178.283594 3.402542 -8.340128 4.431299 -1.506202 -19.964667 8.413232 3.853370 12.833975 -17.850646 nan nan nan -1.106837 -1.634189 5.640896 4.212452 1.226910 5.988427 8.406364 -6.392237 -21.068416 nan nan nan -1.250455 2.863199 -11.396610 3.388263 -2.702608 0.883797 2.313688 -0.222908 -4.141642 -0.563179 -5.016614 -23.608429 8.159151 -2.866053 -32.235870 -4.895414 -3.060271 5.527564 -32.056006 4.188483 5.534265 -177.575483 -63.961354 -150.598167 54.099675 -33.505114 -13.840440 -0.445775 -1.366760 1.823671 36.628432 -12.321737 -8.129671 164.818032 53.341043 -162.146381 -53.494825 32.456892 -11.136291 
-36.701958 39.614178 10.116767 -179.142550 -4.542004 178.344428 3.449907 -8.336529 4.370966 -1.468174 -19.928967 8.353700 3.842618 12.814037 -17.897681 nan nan nan -1.024239 -1.616019 5.598195 4.153908 1.215729 5.963482 8.452306 -6.464989 -20.995000 nan nan nan -1.246888 2.842208 -11.483098 3.391812 -2.677229 0.792752 2.290382 -0.232921 -3.908468 -0.503840 -4.897350 -23.793430 8.088164 -2.947420 -32.246768 -4.357328 -2.995640 5.591093 -32.593125 3.939578 5.408883 -177.410200 -63.889931 -150.382228 54.173096 -33.179469 -13.876925 -0.840360 -1.433309 1.949821 37.128877 -12.041098 -8.178482 164.988321 53.225228 -161.667237 -53.912546 32.133264 -11.475271 
